<svg xmlns="http://www.w3.org/2000/svg" width="24" height="24" viewBox="0 0 24 24" fill="none">
  <path d="M10.2948 19.715C10.4846 19.8963 10.7381 19.9957 11.0005 19.9917C11.263 19.9878 11.5133 19.8808 11.6976 19.6939C11.8819 19.507 11.9853 19.2552 11.9855 18.9927C11.9858 18.7302 11.8828 18.4782 11.6988 18.291L6.32883 12.999H19.9988C20.2641 12.999 20.5184 12.8936 20.7059 12.7061C20.8935 12.5185 20.9988 12.2642 20.9988 11.999C20.9988 11.7338 20.8935 11.4794 20.7059 11.2919C20.5184 11.1043 20.2641 10.999 19.9988 10.999H6.33583L11.6998 5.71398C11.8838 5.52676 11.9868 5.27472 11.9865 5.01226C11.9863 4.74979 11.8829 4.49793 11.6986 4.31103C11.5143 4.12413 11.264 4.01717 11.0015 4.01324C10.7391 4.0093 10.4856 4.10869 10.2958 4.28998L3.36983 11.112C3.25192 11.2283 3.15829 11.3668 3.09438 11.5196C3.03047 11.6724 2.99756 11.8364 2.99756 12.002C2.99756 12.1676 3.03047 12.3316 3.09438 12.4843C3.15829 12.6371 3.25192 12.7757 3.36983 12.892L10.2938 19.715H10.2948Z" fill="white"/>
</svg>