<svg xmlns="http://www.w3.org/2000/svg" width="24" height="24" viewBox="0 0 24 24" fill="none">
  <path d="M16.9998 3.00201C17.4945 3.0021 17.9815 3.12459 18.4173 3.35856C18.8531 3.59252 19.2243 3.93069 19.4977 4.34292C19.7711 4.75515 19.9383 5.22862 19.9843 5.72114C20.0303 6.21365 19.9537 6.7099 19.7614 7.16564C19.5691 7.62138 19.267 8.02245 18.882 8.3331C18.4971 8.64374 18.0413 8.85431 17.5552 8.94603C17.0691 9.03775 16.5679 9.00776 16.0962 8.85875C15.6245 8.70974 15.197 8.44634 14.8518 8.09201L9.39484 11.212C9.53538 11.7283 9.53538 12.2727 9.39484 12.789L14.8528 15.908C15.3622 15.3857 16.0446 15.0671 16.772 15.0119C17.4995 14.9566 18.2221 15.1685 18.8045 15.6078C19.3869 16.0472 19.7892 16.6838 19.9359 17.3985C20.0826 18.1131 19.9636 18.8567 19.6014 19.49C19.2391 20.1232 18.6583 20.6026 17.9679 20.8384C17.2775 21.0741 16.5249 21.0501 15.8509 20.7707C15.177 20.4913 14.6281 19.9757 14.307 19.3206C13.986 18.6655 13.9148 17.9158 14.1068 17.212L8.64984 14.092C8.23375 14.5191 7.69975 14.8125 7.11609 14.9345C6.53243 15.0566 5.92563 15.0018 5.37325 14.7772C4.82087 14.5527 4.34801 14.1685 4.01511 13.6738C3.68221 13.179 3.50439 12.5963 3.50439 12C3.50439 11.4037 3.68221 10.821 4.01511 10.3263C4.34801 9.83156 4.82087 9.44736 5.37325 9.22278C5.92563 8.9982 6.53243 8.94344 7.11609 9.0655C7.69975 9.18756 8.23375 9.4809 8.64984 9.90801L14.1068 6.78801C13.9863 6.34336 13.9698 5.87692 14.0586 5.42486C14.1473 4.97279 14.339 4.54725 14.6188 4.18122C14.8986 3.8152 15.2589 3.51852 15.6718 3.3142C16.0847 3.10987 16.5391 3.00339 16.9998 3.00301V3.00201Z" fill="white"/>
</svg>